<svg width="255" height="254" viewBox="0 0 255 254" fill="none" xmlns="http://www.w3.org/2000/svg">
<path d="M185.759 81.4379L197.183 73.6636L198.124 75.0469L192.457 78.9037L192.548 79.0376L201.707 80.3126L202.937 82.1199L194.519 80.8303L191.514 89.8942L190.375 88.2208L192.982 80.6354L190.404 80.3007L186.7 82.8213L185.759 81.4379Z" fill="black"/>
<path d="M209.298 95.4973L209.961 97.0336L201.561 100.659C200.694 101.033 199.831 101.163 198.973 101.048C198.121 100.936 197.339 100.595 196.628 100.025C195.921 99.4531 195.352 98.6695 194.923 97.6742C194.493 96.6789 194.313 95.7279 194.382 94.8211C194.456 93.9125 194.743 93.1076 195.243 92.4065C195.75 91.7076 196.437 91.1711 197.305 90.7968L205.705 87.1714L206.368 88.7077L198.091 92.2796C197.472 92.547 196.979 92.9212 196.614 93.4023C196.253 93.8817 196.042 94.433 195.983 95.0562C195.93 95.6818 196.055 96.3478 196.36 97.054C196.665 97.7602 197.063 98.3085 197.555 98.6988C198.051 99.0874 198.596 99.3125 199.191 99.3742C199.792 99.4382 200.402 99.3365 201.022 99.0692L209.298 95.4973Z" fill="black"/>
<path d="M198.323 106.274L211.732 102.936L212.136 104.56L200.168 107.539L201.719 113.772L200.279 114.131L198.323 106.274Z" fill="black"/>
<path d="M212.64 113.496L214.118 113.356L215.096 123.673L213.618 123.813L213.208 119.487L200.929 120.651L200.771 118.986L213.05 117.822L212.64 113.496Z" fill="black"/>
<path d="M214.307 138.526L214.155 140.193L205.044 139.362C204.103 139.276 203.283 138.978 202.585 138.467C201.89 137.961 201.367 137.288 201.014 136.447C200.666 135.607 200.541 134.647 200.64 133.568C200.738 132.488 201.034 131.567 201.529 130.803C202.027 130.04 202.664 129.47 203.439 129.094C204.218 128.722 205.078 128.579 206.019 128.665L215.13 129.496L214.978 131.162L206.001 130.344C205.33 130.282 204.718 130.376 204.167 130.624C203.62 130.872 203.172 131.256 202.822 131.775C202.476 132.299 202.268 132.944 202.199 133.71C202.129 134.476 202.217 135.148 202.462 135.726C202.712 136.304 203.083 136.762 203.576 137.101C204.074 137.444 204.658 137.647 205.33 137.708L214.307 138.526Z" fill="black"/>
<path d="M199.583 142.855L212.878 146.621L211.606 151.113C211.312 152.152 210.893 152.954 210.349 153.52C209.81 154.087 209.188 154.444 208.482 154.59C207.777 154.736 207.033 154.699 206.249 154.477C205.466 154.255 204.817 153.898 204.302 153.406C203.786 152.914 203.449 152.288 203.291 151.528C203.136 150.769 203.205 149.874 203.497 148.844L204.527 145.209L205.981 145.621L204.966 149.204C204.765 149.914 204.707 150.515 204.792 151.006C204.876 151.502 205.081 151.902 205.406 152.204C205.735 152.513 206.166 152.742 206.698 152.893C207.23 153.044 207.724 153.076 208.178 152.989C208.633 152.903 209.03 152.672 209.37 152.296C209.715 151.922 209.989 151.375 210.192 150.657L210.994 147.826L199.127 144.465L199.583 142.855ZM203.783 150.805L196.884 152.385L197.414 150.516L204.298 148.987L203.783 150.805Z" fill="black"/>
<path d="M203.288 171.103L190.928 164.925L191.652 163.476L204.723 161.592L204.783 161.471L195.079 156.62L195.827 155.124L208.187 161.302L207.463 162.75L194.356 164.647L194.295 164.767L204.024 169.63L203.288 171.103Z" fill="black"/>
<path d="M186.974 181.766C185.83 180.863 185.005 179.876 184.498 178.805C183.991 177.734 183.796 176.66 183.913 175.583C184.03 174.506 184.453 173.505 185.184 172.58C185.914 171.655 186.79 171.011 187.81 170.648C188.831 170.285 189.921 170.225 191.08 170.47C192.239 170.715 193.391 171.289 194.534 172.193C195.678 173.096 196.503 174.083 197.01 175.154C197.517 176.225 197.712 177.299 197.595 178.376C197.478 179.453 197.055 180.454 196.324 181.379C195.594 182.303 194.718 182.947 193.698 183.311C192.677 183.674 191.587 183.733 190.428 183.488C189.269 183.243 188.117 182.669 186.974 181.766ZM187.977 180.495C188.916 181.237 189.833 181.706 190.727 181.902C191.618 182.101 192.44 182.065 193.193 181.794C193.943 181.527 194.577 181.065 195.096 180.408C195.614 179.752 195.918 179.026 196.007 178.231C196.094 177.439 195.938 176.631 195.54 175.807C195.139 174.986 194.47 174.205 193.531 173.463C192.592 172.722 191.677 172.251 190.785 172.052C189.891 171.856 189.069 171.891 188.319 172.159C187.566 172.43 186.931 172.894 186.412 173.55C185.894 174.207 185.591 174.931 185.505 175.722C185.416 176.518 185.571 177.325 185.972 178.146C186.37 178.971 187.038 179.754 187.977 180.495Z" fill="black"/>
<path d="M175.58 200.28L174.223 201.26L168.866 193.843C168.313 193.078 167.999 192.263 167.926 191.401C167.851 190.545 168.015 189.708 168.417 188.89C168.822 188.076 169.464 187.351 170.343 186.717C171.222 186.082 172.111 185.7 173.012 185.571C173.915 185.446 174.762 185.552 175.555 185.89C176.347 186.233 177.02 186.788 177.573 187.553L182.93 194.97L181.574 195.95L176.296 188.643C175.901 188.096 175.429 187.696 174.88 187.443C174.334 187.194 173.75 187.108 173.128 187.185C172.506 187.268 171.883 187.535 171.26 187.986C170.636 188.436 170.187 188.943 169.912 189.508C169.64 190.076 169.539 190.658 169.607 191.252C169.675 191.852 169.906 192.426 170.301 192.973L175.58 200.28Z" fill="black"/>
<path d="M168.078 204.943L166.242 205.729L157.41 197.033L157.261 197.097L157.459 209.489L155.623 210.275L150.184 197.572L151.623 196.956L155.755 206.608L155.879 206.554L155.717 195.204L157.106 194.609L165.208 202.56L165.332 202.507L161.2 192.856L162.639 192.24L168.078 204.943Z" fill="black"/>
<path d="M143.695 213.182L142.057 213.525L140.037 203.855C139.857 202.992 139.863 202.226 140.054 201.557C140.245 200.887 140.596 200.336 141.107 199.903C141.619 199.47 142.267 199.171 143.05 199.008C143.79 198.853 144.476 198.85 145.109 198.998C145.743 199.151 146.278 199.443 146.713 199.876C147.148 200.309 147.437 200.871 147.582 201.563L145.97 201.899C145.89 201.516 145.726 201.201 145.477 200.955C145.224 200.713 144.914 200.548 144.546 200.46C144.178 200.371 143.781 200.372 143.354 200.461C142.883 200.559 142.503 200.742 142.214 201.009C141.925 201.276 141.735 201.619 141.643 202.038C141.548 202.462 141.559 202.954 141.675 203.513L143.695 213.182Z" fill="black"/>
<path d="M134.904 200.617L135.581 214.418L127.252 214.827L127.179 213.345L133.837 213.018L133.608 208.355L127.381 208.66L127.308 207.178L133.535 206.872L133.305 202.182L126.539 202.514L126.466 201.031L134.904 200.617Z" fill="black"/>
<path d="M122.273 213.254L122.099 214.728L111.807 213.517L111.98 212.043L116.295 212.551L117.736 200.301L119.398 200.497L117.957 212.746L122.273 213.254Z" fill="black"/>
<path d="M95.6314 209.052L99.7644 195.867L101.31 196.351L105.25 208.956L105.378 208.996L108.623 198.644L110.22 199.144L106.087 212.33L104.542 211.845L100.584 199.207L100.455 199.166L97.2023 209.545L95.6314 209.052Z" fill="black"/>
<path d="M88.9397 205.98L94.8365 193.483L96.3498 194.197L90.453 206.694L88.9397 205.98Z" fill="black"/>
<path d="M76.8401 193.798L78.2439 194.709C78.065 195.166 77.9802 195.615 77.9894 196.055C77.9949 196.493 78.0775 196.911 78.2373 197.31C78.3908 197.71 78.6106 198.078 78.8968 198.413C79.183 198.749 79.5185 199.042 79.9034 199.291C80.6054 199.747 81.3563 199.982 82.1562 199.997C82.9524 200.009 83.7423 199.779 84.5262 199.306C85.3062 198.831 86.0218 198.092 86.6729 197.088C87.3241 196.084 87.7076 195.129 87.8235 194.223C87.9356 193.315 87.8236 192.5 87.4877 191.778C87.148 191.053 86.6271 190.463 85.9252 190.008C85.5403 189.759 85.1362 189.571 84.713 189.447C84.2897 189.323 83.8654 189.27 83.4402 189.289C83.0088 189.309 82.5921 189.406 82.19 189.58C81.7817 189.755 81.4063 190.015 81.0638 190.361L79.66 189.451C80.15 188.927 80.6864 188.521 81.2692 188.235C81.852 187.948 82.4574 187.775 83.0855 187.716C83.7111 187.66 84.3375 187.716 84.9646 187.881C85.588 188.044 86.1922 188.316 86.7771 188.695C87.7658 189.336 88.4884 190.148 88.9449 191.131C89.4014 192.113 89.5616 193.193 89.4254 194.37C89.2892 195.547 88.8246 196.746 88.0315 197.969C87.2384 199.192 86.3322 200.105 85.313 200.709C84.2938 201.314 83.2426 201.608 82.1594 201.591C81.0762 201.575 80.0403 201.246 79.0516 200.605C78.4667 200.225 77.9727 199.784 77.5696 199.282C77.1627 198.776 76.8583 198.225 76.6561 197.627C76.4515 197.034 76.3614 196.412 76.3857 195.763C76.4075 195.118 76.559 194.463 76.8401 193.798ZM78.0699 204.697L77.9207 202.348L75.7152 203.169L74.4472 202.347L74.5059 202.256L77.8674 201.091L79.0901 201.884L79.3967 205.429L79.3379 205.519L78.0699 204.697Z" fill="black"/>
<path d="M79.4705 183.653L69.9551 193.673L68.7417 192.521L73.4623 187.55L73.3449 187.438L64.1232 188.135L62.538 186.629L71.0387 186.104L72.0534 176.609L73.5212 178.003L72.5815 185.969L75.1721 185.749L78.2572 182.501L79.4705 183.653Z" fill="black"/>
<path d="M57.9183 169.172C59.1013 168.321 60.2774 167.799 61.4465 167.606C62.6156 167.414 63.7017 167.522 64.705 167.93C65.7082 168.339 66.5539 169.022 67.2421 169.978C67.9304 170.935 68.3087 171.954 68.3772 173.035C68.4456 174.116 68.2027 175.18 67.6483 176.227C67.0939 177.275 66.2251 178.224 65.042 179.075C63.859 179.926 62.6829 180.448 61.5138 180.64C60.3448 180.833 59.2586 180.725 58.2554 180.316C57.2521 179.908 56.4064 179.225 55.7182 178.268C55.03 177.312 54.6516 176.293 54.5831 175.212C54.5147 174.131 54.7576 173.066 55.3121 172.019C55.8665 170.972 56.7352 170.023 57.9183 169.172ZM58.8639 170.487C57.8926 171.185 57.1898 171.937 56.7553 172.743C56.3183 173.545 56.1264 174.345 56.1798 175.144C56.2306 175.938 56.5003 176.675 56.9889 177.354C57.4775 178.033 58.0917 178.525 58.8316 178.83C59.5688 179.131 60.3884 179.203 61.2904 179.047C62.1898 178.888 63.1251 178.459 64.0964 177.76C65.0677 177.061 65.7719 176.311 66.2089 175.509C66.6434 174.703 66.8352 173.903 66.7844 173.109C66.731 172.31 66.46 171.572 65.9714 170.892C65.4829 170.213 64.87 169.723 64.1327 169.422C63.3928 169.118 62.5732 169.045 61.6738 169.205C60.7718 169.361 59.8352 169.788 58.8639 170.487Z" fill="black"/>
<path d="M57.927 153.041L59.383 157.049L46.3953 161.767L44.8748 157.582C44.4171 156.322 44.2854 155.149 44.4798 154.064C44.67 152.98 45.1624 152.024 45.957 151.194C46.7474 150.367 47.8148 149.708 49.1592 149.22C50.5121 148.728 51.7644 148.546 52.9161 148.673C54.0635 148.802 55.0668 149.232 55.9259 149.963C56.7807 150.696 57.4478 151.722 57.927 153.041ZM57.4165 155.983L56.5687 153.649C56.1785 152.575 55.6481 151.761 54.9773 151.205C54.3064 150.65 53.5254 150.338 52.6343 150.269C51.7431 150.2 50.769 150.358 49.7121 150.742C48.6636 151.123 47.8232 151.622 47.1908 152.239C46.5543 152.858 46.1567 153.582 45.9981 154.41C45.8353 155.24 45.9382 156.162 46.3068 157.176L47.2191 159.688L57.4165 155.983Z" fill="black"/>
<path d="M54.9131 143.492L41.2821 145.759L40.5162 141.153C40.3391 140.088 40.3757 139.184 40.6259 138.44C40.8717 137.697 41.2824 137.109 41.8578 136.676C42.4333 136.243 43.1226 135.959 43.9257 135.826C44.7289 135.692 45.4683 135.738 46.1441 135.963C46.82 136.188 47.3918 136.611 47.8596 137.23C48.3231 137.851 48.6426 138.689 48.8182 139.745L49.438 143.473L47.9471 143.721L47.3362 140.047C47.2151 139.319 47.0113 138.751 46.7245 138.343C46.437 137.93 46.0814 137.656 45.6577 137.521C45.2289 137.383 44.7416 137.359 44.1958 137.45C43.65 137.541 43.19 137.722 42.8157 137.994C42.4414 138.266 42.1806 138.644 42.0333 139.129C41.8815 139.615 41.8669 140.226 41.9893 140.963L42.4719 143.865L54.6386 141.842L54.9131 143.492ZM47.7229 138.094L53.2884 133.722L53.6071 135.639L48.0328 139.958L47.7229 138.094Z" fill="black"/>
<path d="M39.4576 121.456L39.4921 119.783L48.6393 119.972C49.5837 119.991 50.4223 120.231 51.1551 120.692C51.8836 121.148 52.4531 121.783 52.8637 122.597C53.2699 123.41 53.4618 124.359 53.4394 125.443C53.417 126.527 53.1862 127.467 52.7469 128.263C52.303 129.059 51.7078 129.672 50.961 130.102C50.2099 130.528 49.3622 130.731 48.4178 130.711L39.2706 130.522L39.3051 128.85L48.3173 129.035C48.9919 129.049 49.5954 128.913 50.1276 128.627C50.6554 128.341 51.0756 127.927 51.3883 127.385C51.6965 126.838 51.8585 126.18 51.8744 125.411C51.8903 124.642 51.7555 123.977 51.4701 123.418C51.1802 122.859 50.7774 122.428 50.2618 122.124C49.7417 121.817 49.1444 121.656 48.4699 121.642L39.4576 121.456Z" fill="black"/>
<path d="M45.2347 106.606C44.5488 106.546 43.9623 106.759 43.475 107.246C42.9878 107.733 42.659 108.386 42.4885 109.205C42.3639 109.804 42.3517 110.348 42.452 110.837C42.5532 111.322 42.7472 111.726 43.0341 112.047C43.3218 112.365 43.6815 112.568 44.1131 112.658C44.4742 112.733 44.8025 112.712 45.0981 112.594C45.3901 112.471 45.6505 112.291 45.879 112.054C46.1032 111.815 46.3015 111.558 46.4739 111.282C46.6419 111.004 46.7851 110.747 46.9034 110.509L47.5592 109.212C47.725 108.879 47.9343 108.514 48.187 108.116C48.4407 107.714 48.7497 107.344 49.114 107.007C49.4749 106.664 49.9003 106.408 50.3903 106.239C50.8804 106.07 51.4425 106.051 52.0766 106.183C52.8076 106.335 53.4283 106.664 53.9387 107.17C54.45 107.672 54.8035 108.324 54.9993 109.127C55.196 109.927 55.1862 110.846 54.9699 111.885C54.7682 112.854 54.4373 113.66 53.9771 114.304C53.5178 114.944 52.9663 115.408 52.3228 115.697C51.6801 115.981 50.9833 116.072 50.2325 115.971L50.5844 114.28C51.1044 114.343 51.5629 114.259 51.9599 114.029C52.3535 113.794 52.6798 113.462 52.939 113.034C53.1946 112.6 53.3784 112.114 53.4902 111.577C53.6203 110.952 53.6359 110.369 53.5369 109.829C53.4335 109.289 53.2293 108.835 52.9242 108.468C52.6148 108.101 52.2135 107.865 51.7203 107.763C51.2711 107.669 50.8795 107.719 50.5454 107.911C50.2113 108.103 49.9136 108.386 49.6522 108.759C49.3908 109.132 49.1446 109.542 48.9135 109.99L48.0914 111.556C47.5676 112.55 46.9597 113.296 46.2677 113.795C45.5757 114.295 44.774 114.449 43.8624 114.26C43.1049 114.102 42.487 113.76 42.0085 113.233C41.5266 112.701 41.2017 112.054 41.0339 111.293C40.8625 110.527 40.8666 109.713 41.0463 108.849C41.2277 107.977 41.5454 107.235 41.9992 106.622C42.4486 106.008 42.9831 105.559 43.6029 105.274C44.2235 104.985 44.8774 104.901 45.5646 105.021L45.2347 106.606ZM36.8487 109.547L38.9842 108.558L37.4206 106.799L37.7285 105.32L37.8342 105.342L40.1368 108.054L39.8398 109.48L36.6465 111.049L36.5408 111.027L36.8487 109.547Z" fill="black"/>
<path d="M45.012 99.8833L43.632 99.3364L47.4499 89.7017L48.8299 90.2485L47.2292 94.2881L58.6956 98.8318L58.0791 100.387L46.6128 95.8437L45.012 99.8833Z" fill="black"/>
<path d="M50.316 84.209L62.3704 86.8216L62.4554 86.6838L54.7068 77.0872L55.6274 75.594L64.727 87.1648L63.8205 88.6351L49.3954 85.7022L50.316 84.209Z" fill="black"/>
<path d="M71.682 67.716C72.7545 68.7028 73.5032 69.7492 73.9281 70.8553C74.353 71.9613 74.4666 73.0469 74.269 74.112C74.0714 75.1771 73.5736 76.1433 72.7757 77.0106C71.9777 77.8778 71.0563 78.4542 70.0112 78.7396C68.9662 79.0251 67.875 79.0021 66.7374 78.6706C65.5999 78.3391 64.4949 77.68 63.4224 76.6932C62.3499 75.7064 61.6012 74.66 61.1763 73.554C60.7515 72.4479 60.6378 71.3623 60.8354 70.2972C61.033 69.2321 61.5308 68.2659 62.3288 67.3987C63.1267 66.5314 64.0482 65.955 65.0932 65.6696C66.1382 65.3842 67.2295 65.4072 68.367 65.7386C69.5045 66.0701 70.6095 66.7292 71.682 67.716ZM70.5856 68.9077C69.7051 68.0975 68.8265 67.5611 67.9496 67.2984C67.0759 67.0323 66.2535 67.0061 65.4824 67.2196C64.7144 67.4299 64.0472 67.8428 63.4807 68.4585C62.9142 69.0742 62.5566 69.7751 62.4079 70.5613C62.2622 71.3441 62.3567 72.1615 62.6914 73.0134C63.0292 73.862 63.6383 74.6914 64.5188 75.5016C65.3993 76.3117 66.2764 76.8498 67.1502 77.1158C68.027 77.3786 68.8495 77.4048 69.6174 77.1946C70.3885 76.981 71.0573 76.5664 71.6237 75.9507C72.1902 75.335 72.5463 74.6358 72.692 73.8529C72.8407 73.0668 72.7462 72.2494 72.4084 71.4008C72.0737 70.5488 71.4661 69.7178 70.5856 68.9077Z" fill="black"/>
<path d="M83.8336 66.7547L76.4437 55.0786L80.6056 52.4445C81.514 51.8696 82.3712 51.5586 83.1773 51.5116C83.9833 51.4646 84.7161 51.6342 85.3758 52.0205C86.0331 52.403 86.5879 52.9515 87.0401 53.6661C87.4948 54.3845 87.7536 55.1256 87.8166 55.8896C87.881 56.6473 87.7187 57.3835 87.3299 58.098C86.9424 58.8064 86.2964 59.4468 85.3918 60.0193L82.5298 61.8307L81.5844 60.337L84.2868 58.6267C84.8607 58.2634 85.2638 57.8699 85.496 57.4461C85.7257 57.0186 85.8148 56.5789 85.7631 56.1272C85.7115 55.6755 85.5461 55.2292 85.2671 54.7883C84.988 54.3474 84.6566 54.0088 84.2729 53.7726C83.8892 53.5364 83.4554 53.4356 82.9716 53.4703C82.4917 53.5026 81.959 53.7039 81.3737 54.0744L79.1616 55.4744L85.5953 65.6397L83.8336 66.7547Z" fill="#C71919"/>
<path d="M94.6923 60.2392L89.4159 47.4681L93.9681 45.5873C94.9575 45.1785 95.849 45.0097 96.6425 45.081C97.4402 45.1505 98.1257 45.4197 98.699 45.8885C99.2706 46.3532 99.7188 46.9784 100.043 47.7641C100.366 48.5457 100.486 49.3015 100.404 50.0317C100.323 50.756 100.022 51.4181 99.5012 52.0179C98.9842 52.6159 98.231 53.1194 97.2416 53.5282L93.7931 54.9529L93.1078 53.2942L96.3817 51.9416C97.0053 51.6839 97.4755 51.385 97.7924 51.0448C98.1135 50.7028 98.2951 50.3236 98.3372 49.9072C98.3793 49.4907 98.3015 49.0434 98.104 48.5653C97.9048 48.0831 97.6386 47.7039 97.3055 47.4279C96.9766 47.1501 96.5761 46.9992 96.1038 46.9753C95.634 46.9455 95.0811 47.062 94.445 47.3248L92.0255 48.3245L96.6192 59.4431L94.6923 60.2392ZM98.6162 51.8725L104.152 56.3308L101.957 57.2377L96.4836 52.7536L98.6162 51.8725Z" fill="#C71919"/>
<path d="M104.809 41.9582L108.482 55.2793L106.472 55.8335L102.799 42.5123L104.809 41.9582Z" fill="#C71919"/>
<path d="M119.833 43.6822C119.65 43.2937 119.427 42.9535 119.166 42.6617C118.909 42.3647 118.615 42.1224 118.286 41.9349C117.957 41.7429 117.592 41.6122 117.193 41.543C116.798 41.4731 116.373 41.4685 115.918 41.5291C115.146 41.632 114.477 41.9231 113.911 42.4026C113.344 42.882 112.931 43.5292 112.672 44.3443C112.417 45.1543 112.363 46.1121 112.51 47.2179C112.658 48.3281 112.964 49.2426 113.428 49.9613C113.891 50.68 114.463 51.1959 115.145 51.5089C115.827 51.8219 116.569 51.9249 117.371 51.8179C118.116 51.7186 118.744 51.4806 119.257 51.1037C119.774 50.7262 120.147 50.2408 120.376 49.6475C120.61 49.0491 120.676 48.3732 120.576 47.6197L121.124 47.6487L117.205 48.1712L116.978 46.4658L122.361 45.748L122.569 47.3063C122.723 48.4566 122.61 49.488 122.233 50.4006C121.859 51.308 121.273 52.0488 120.474 52.6227C119.679 53.1961 118.728 53.5565 117.623 53.7039C116.383 53.8692 115.257 53.7289 114.245 53.283C113.237 52.8365 112.402 52.1242 111.741 51.1459C111.079 50.1632 110.652 48.9496 110.459 47.505C110.313 46.4126 110.334 45.4115 110.521 44.5017C110.709 43.5918 111.036 42.7971 111.504 42.1176C111.975 41.4331 112.562 40.8807 113.264 40.4604C113.969 40.035 114.766 39.7632 115.653 39.6449C116.393 39.5462 117.097 39.5636 117.763 39.6971C118.434 39.83 119.046 40.0637 119.599 40.3984C120.157 40.7326 120.637 41.1541 121.041 41.6629C121.444 42.1674 121.748 42.7462 121.953 43.3996L119.833 43.6822Z" fill="#C71919"/>
<path d="M138.993 46.6174C138.891 48.0892 138.534 49.3361 137.922 50.3578C137.311 51.3751 136.517 52.1363 135.539 52.6413C134.567 53.1422 133.486 53.3515 132.297 53.2693C131.103 53.1867 130.057 52.8303 129.158 52.2C128.264 51.5656 127.585 50.7002 127.12 49.604C126.654 48.5077 126.472 47.2259 126.574 45.7585C126.676 44.2866 127.032 43.0421 127.644 42.0248C128.255 41.003 129.048 40.2417 130.02 39.7408C130.997 39.2358 132.083 39.0245 133.276 39.1071C134.466 39.1893 135.507 39.5477 136.401 40.1821C137.3 40.8124 137.982 41.6757 138.447 42.7719C138.913 43.8637 139.095 45.1455 138.993 46.6174ZM136.933 46.4749C137.011 45.3531 136.894 44.3959 136.584 43.6034C136.278 42.8068 135.825 42.1893 135.224 41.7509C134.628 41.3084 133.935 41.0599 133.145 41.0052C132.351 40.9503 131.628 41.101 130.977 41.4572C130.326 41.809 129.792 42.3582 129.375 43.1049C128.963 43.8474 128.718 44.7796 128.64 45.9014C128.563 47.0233 128.677 47.9825 128.982 48.7792C129.293 49.5717 129.746 50.1892 130.342 50.6317C130.939 51.0697 131.634 51.3162 132.428 51.3711C133.218 51.4257 133.938 51.2772 134.589 50.9254C135.245 50.5695 135.779 50.0203 136.191 49.2777C136.608 48.531 136.855 47.5968 136.933 46.4749Z" fill="#C71919"/>
<path d="M141.583 54.1706L145.092 40.8054L149.856 42.056C150.892 42.3279 151.704 42.7318 152.293 43.2679C152.887 43.8051 153.271 44.4337 153.445 45.1536C153.619 45.8692 153.599 46.6382 153.383 47.4604C153.168 48.2784 152.808 48.9533 152.3 49.4852C151.799 50.0139 151.159 50.3599 150.382 50.5231C149.608 50.6875 148.704 50.6338 147.669 50.3619L144.06 49.4145L144.515 47.6786L147.942 48.5781C148.594 48.7494 149.15 48.7952 149.608 48.7155C150.07 48.6369 150.444 48.4444 150.729 48.1379C151.014 47.8314 151.222 47.4279 151.354 46.9276C151.486 46.4229 151.503 45.96 151.404 45.5388C151.31 45.1187 151.082 44.7565 150.72 44.4523C150.363 44.1448 149.852 43.9036 149.187 43.7289L146.655 43.0642L143.6 54.7L141.583 54.1706ZM149.764 49.8727L151.483 56.7697L149.186 56.1666L147.532 49.2868L149.764 49.8727Z" fill="#C71919"/>
<path d="M153.823 57.7232L159.501 45.1256L167.399 48.6856L166.662 50.3218L160.664 47.6186L158.934 51.4569L164.52 53.9744L163.785 55.6045L158.2 53.087L156.461 56.9437L162.532 59.6803L161.795 61.3165L153.823 57.7232Z" fill="#C71919"/>
<path d="M179.399 61.6671L177.665 60.4734C177.853 60.057 177.954 59.6455 177.966 59.2389C177.978 58.8323 177.921 58.4403 177.793 58.0629C177.665 57.6854 177.472 57.3344 177.215 57.0099C176.962 56.688 176.653 56.402 176.29 56.1521C175.634 55.7006 174.934 55.4612 174.188 55.4339C173.446 55.4091 172.706 55.612 171.967 56.0427C171.232 56.4759 170.548 57.1519 169.915 58.0707C169.278 58.997 168.888 59.8808 168.745 60.7221C168.607 61.566 168.685 62.3295 168.979 63.0126C169.273 63.6957 169.744 64.2605 170.393 64.7068C170.752 64.9542 171.126 65.1407 171.515 65.2663C171.91 65.3907 172.305 65.4472 172.701 65.4356C173.096 65.424 173.481 65.3418 173.853 65.1889C174.233 65.0349 174.582 64.8005 174.903 64.4859L176.633 65.6852C176.155 66.1809 175.621 66.5721 175.03 66.859C174.446 67.1448 173.829 67.3152 173.179 67.3704C172.536 67.4245 171.885 67.3617 171.228 67.1822C170.571 67.0027 169.929 66.6975 169.303 66.2664C168.317 65.5879 167.6 64.75 167.15 63.7526C166.704 62.7516 166.559 61.6608 166.716 60.4803C166.878 59.3024 167.375 58.1077 168.209 56.8962C169.046 55.6809 169.986 54.791 171.03 54.2264C172.077 53.6581 173.146 53.4058 174.238 53.4695C175.332 53.5295 176.371 53.8974 177.353 54.5734C177.956 54.9891 178.46 55.4639 178.862 55.9977C179.271 56.5303 179.57 57.1074 179.759 57.7291C179.951 58.3471 180.019 58.9894 179.964 59.6561C179.912 60.3191 179.723 60.9894 179.399 61.6671Z" fill="#C71919"/>
</svg>
